<?xml version="1.0" encoding="UTF-8" standalone="no"?>
<!-- Created with Inkscape (http://www.inkscape.org/) -->

<svg
   width="150mm"
   height="150mm"
   viewBox="0 0 150 150"
   version="1.1"
   id="svg1"
   inkscape:version="1.4.3 (0d15f75, 2025-12-25)"
   sodipodi:docname="drawing.svg"
   inkscape:export-filename="../private-workspace/everythingbuiltwith/apps/web/public/everythingbuiltwith_logo_white.png"
   inkscape:export-xdpi="96"
   inkscape:export-ydpi="96"
   xml:space="preserve"
   xmlns:inkscape="http://www.inkscape.org/namespaces/inkscape"
   xmlns:sodipodi="http://sodipodi.sourceforge.net/DTD/sodipodi-0.dtd"
   xmlns="http://www.w3.org/2000/svg"
   xmlns:svg="http://www.w3.org/2000/svg"><sodipodi:namedview
     id="namedview1"
     pagecolor="#505050"
     bordercolor="#eeeeee"
     borderopacity="1"
     inkscape:showpageshadow="0"
     inkscape:pageopacity="0"
     inkscape:pagecheckerboard="0"
     inkscape:deskcolor="#505050"
     inkscape:document-units="mm"
     inkscape:zoom="0.33256142"
     inkscape:cx="2659.6591"
     inkscape:cy="616.42749"
     inkscape:window-width="1512"
     inkscape:window-height="921"
     inkscape:window-x="0"
     inkscape:window-y="33"
     inkscape:window-maximized="0"
     inkscape:current-layer="svg1"
     showguides="false"
     inkscape:lockguides="false"
     showgrid="false"
     inkscape:export-bgcolor="#ffffff00"><inkscape:grid
       id="grid9"
       units="mm"
       originx="14.084016"
       originy="-77.23542"
       spacingx="1"
       spacingy="1"
       empcolor="#0099e5"
       empopacity="0.30196078"
       color="#0099e5"
       opacity="0.14901961"
       empspacing="5"
       enabled="true"
       visible="false" /><inkscape:page
       x="0"
       y="0"
       width="150"
       height="150"
       id="page2"
       margin="0"
       bleed="0" /></sodipodi:namedview><defs
     id="defs1" /><g
     style="display:inline;fill:#e8453a;fill-opacity:1"
     id="g3"
     transform="matrix(0.18132326,0,0,0.11808802,-110.89339,-77.870914)"
     inkscape:export-filename="../private-workspace/everythingbuiltwith/apps/web/public/everythingbuiltwith_icon_red.svg"
     inkscape:export-xdpi="39.076923"
     inkscape:export-ydpi="39.076923"><g
       id="g5"
       style="display:inline;fill:#e8453a;fill-opacity:1"
       inkscape:label="bottom layer"
       transform="translate(5.3258904e-6)"><path
         fill="#ebeced"
         d="m 658.662,1469.76 c 15.703,0.71 132.755,75.79 157.312,89.58 -9.338,6.15 -26.408,14.89 -36.947,20.93 -11.683,-4.22 -33.568,-18.24 -45.388,-24.8 -36.881,-20.47 -74.583,-45.5 -112.087,-64.42 11.723,-7.37 24.978,-13.96 37.11,-21.29 z"
         id="path26"
         style="display:inline;fill:#e8453a;fill-opacity:1" /><path
         fill="#ebeced"
         d="m 826.577,1569.98 c 7.477,-1.04 19.999,7.27 26.539,11.34 -9.732,8.04 -31.608,20.16 -43.314,26.98 l 0.075,113.27 c 0.023,14.69 0.373,32.11 -0.687,46.88 -0.189,2.63 -2.652,3.55 -4.828,4.92 -5.711,3.1 -11.58,5.91 -17.411,8.78 -1.727,-24.4 -0.626,-56.05 -0.399,-80.65 0.33,-35.98 -0.111,-72.21 0.376,-108.1 11.798,-7.12 27.809,-17.66 39.649,-23.42 z"
         id="path29"
         inkscape:label="path29"
         style="fill:#e8453a;fill-opacity:1" /><path
         fill="#ebeced"
         d="m 1384.62,1469.89 c 5.87,-0.41 32.87,17.25 39.56,21.38 -10.51,7.27 -30.86,18.02 -42.51,24.68 -26.54,15.53 -53.18,30.88 -79.92,46.05 l -150.25,87.58 c -41.87,24.36 -85.4,48.98 -126.5,74.42 -14.53,-6.99 -39.53,-22.56 -54.457,-31.25 -32.465,-18.59 -64.763,-37.48 -96.891,-56.65 -13.747,-8.17 -27.769,-15.52 -41.302,-24.1 12.414,-7.12 24.405,-14.39 36.964,-21.46 20.555,9.54 45.163,25.32 65.121,37.29 29.68,17.84 59.562,35.35 89.635,52.51 12.66,-6.38 28.86,-16.68 41.23,-24.07 l 57.91,-34.12 165.04,-96.76 c 26.74,-15.92 68.99,-42.24 96.37,-55.5 z"
         id="path14"
         style="display:inline;fill:#e8453a;fill-opacity:1"
         transform="translate(5.3258904e-6)" /><path
         fill="#ebeced"
         d="m 612.107,1502.25 c 8.594,3.13 39.871,22.11 49.457,27.64 l 109.648,63.5 c 1.298,14.43 -0.081,44.94 -0.063,61.03 0.28,42.28 0.331,84.55 0.152,126.83 l -0.02,1.82 -1.232,0.91 c -3.925,-1.13 -12.032,-6.31 -15.964,-8.72 -46.615,-28.57 -94.621,-54.83 -141.636,-82.66 -1.371,-20.38 -0.419,-51.2 -0.382,-72.23 z"
         id="path12"
         style="display:inline;fill:#e8453a;fill-opacity:1"
         transform="translate(5.3258904e-6)" /><path
         fill="#ebeced"
         d="m 824.384,1625.49 c 6.796,2.55 20.148,10.71 27.029,14.69 l 47.48,27.8 66.794,39.32 c 13.903,8.07 27.963,16.08 41.803,24.24 1.83,1.09 6.4,4.05 7.18,5.77 0.92,2.03 1.46,7.9 1.35,9.75 -0.85,14.97 1.35,175.82 -0.43,180.49 l -1.95,-0.13 -80.402,-46.19 c -35.927,-21.06 -72.994,-43.63 -109.149,-63.93 -1.109,-16.74 -0.049,-43.14 10e-4,-60.52 0.126,-43.4 1.596,-87.9 0.294,-131.29 z"
         id="path11"
         style="display:block;fill:#e8453a;fill-opacity:1"
         transform="translate(5.3258904e-6)" /><path
         fill="#ebeced"
         d="m 1432.56,1504.95 2.48,0.69 c 1.74,28.77 1.23,72.24 0.62,101.35 -48.14,27.78 -96,53.07 -144.37,81.97 -19.66,-7.78 -38.7,-16.61 -58.62,-23.94 -24.17,11.69 -56.07,31.95 -80.28,46.19 -25.31,14.9 -59.41,32.66 -83.35,48.38 0.67,4.72 1.04,10.06 1.49,14.85 43.73,-23.58 86.03,-48.9 129.02,-73.73 10.56,-6.09 23.66,-14.42 34.52,-19.16 l 0.88,0.32 c 17.66,6.17 38.8,17.33 57.28,24.67 33.47,-22.37 71.5,-41.2 105.68,-62.77 12.29,-7.75 25.95,-13.76 38.08,-21.99 -0.9,23.09 0.53,47.17 -0.44,70.64 -10.92,7.57 -32.29,19.26 -44.43,26.43 -38.41,23.31 -77.09,46.17 -116.02,68.58 l -243.28,142.24 -0.76,-128.19 c -0.03,-21.19 -0.67,-45.78 1.16,-66.57 11.31,-4.46 32.82,-17.6 43.84,-24.13 18.05,-10.65 36.19,-21.16 54.4,-31.53 l 199.63,-115.62 c 32.53,-18.85 69.43,-41.9 102.47,-58.68 z m -363.57,307.17 c 0.11,16.44 -0.14,34.63 0.59,50.92 6.44,-3.19 25.32,-13.26 30.96,-17.38 33.03,-18.28 66.85,-38.67 99.67,-57.55 16.44,-9.46 55.65,-30.18 69.34,-40.79 -7.49,-3.92 -41.23,-22.67 -46.96,-23.43 -48.24,26.37 -106.21,59.81 -153.6,88.23 z m 240.85,-198.46 c -0.01,5.49 -0.96,31.62 1.45,34.47 25.06,-16.08 62.17,-38.73 88.64,-52.74 0.09,-5.56 1.26,-31.31 -1.02,-34.35 l -56.79,33.12 c -9.19,5.37 -23.98,13.51 -32.28,19.5 z"
         id="path6"
         style="display:inline;fill:#e8453a;fill-opacity:1"
         transform="translate(5.3258904e-6)" /></g><g
       id="g6"
       inkscape:label="middle layer"
       style="display:inline;fill:#e8453a;fill-opacity:1"><path
         fill="#ebeced"
         d="m 1433.58,1207.84 c 3.53,4.96 0.6,57.33 1.01,67.04 0.43,10.14 -16.05,16.26 -24.53,21.14 l -85.76,49.31 c -15.52,8.94 -32.76,18.07 -47.05,28.94 -4.55,3.46 -3.28,9.27 0.36,13.21 6.64,0.98 46.45,-24.05 54.11,-28.49 l 103.21,-60.25 0.09,123.94 c -10.81,6.54 -23.97,13.18 -35.25,19.82 -69.8,40.22 -139.24,81.06 -208.31,122.53 -40.84,24.58 -81.95,48.7 -123.32,72.37 -12.11,6.91 -25.01,15.36 -37.05,21.63 -0.2,-8.95 -0.32,-18.03 -0.2,-26.98 0.84,-64.11 -1.11,-128.69 0.17,-192.76 25.9,-15.63 54,-29.97 80.4,-45.07 51.63,-30.18 103.41,-60.07 155.36,-89.68 55.36,-31.61 111.22,-66.35 166.76,-96.7 z m -364.67,253.99 c -0.02,6.76 -1.07,46.92 1.28,49.68 l 1.22,-0.82 c 32.67,-17.52 64.94,-35.78 96.78,-54.76 15.96,-9.47 35.43,-20.49 50.58,-30.64 -0.38,-12.73 0.7,-37.69 -0.48,-47.99 l -1.23,-0.41 c -45.36,23.93 -88.96,51.45 -133.74,76.46 -4.78,2.67 -9.88,5.45 -14.41,8.48 z m 104.69,58.57 c -21.25,13.35 -42.69,25.51 -64.33,38.14 -12.43,7.26 -28.11,16 -39.64,24.46 0.29,2.91 0.92,11.58 1.45,14 33.22,-17.14 81.79,-45.83 112.57,-66.09 8.8,-18.6 16.23,-37.09 24.4,-55.93 17.27,-11.11 38.63,-21.88 56.71,-32.41 l 133.32,-77.91 c 0.11,-3.86 1.28,-16.87 -0.28,-18.79 -62.57,38.87 -133.22,77.62 -196.44,116.24 -4.69,2.86 -23.87,49.48 -27.76,58.29 z"
         id="path3"
         style="fill:#e8453a;fill-opacity:1" /><path
         fill="#ebeced"
         d="m 612.236,1207.39 c 13.652,5.54 33.99,17.66 47.247,25.48 26.834,15.84 53.278,32.07 80.284,47.74 l 276.083,158.93 c 0.86,6.88 0.72,21.65 0.81,29.01 0.19,18.57 0.28,37.14 0.28,55.71 0.09,43.27 1.31,92.49 0.14,135.34 -13.17,-8.95 -32.077,-19.46 -46.145,-27.67 l -77.871,-45.37 -143.316,-84.62 c -36.85,-21.18 -73.589,-42.56 -110.215,-64.13 -9.024,-5.13 -18.386,-10.01 -26.952,-15.84 -1.661,-21.75 -0.498,-57.84 -0.275,-80.45 38.978,22.36 77.783,45.01 116.411,67.96 18.872,11.13 38.36,21.7 56.952,33.4 13.357,8.41 13.892,28.21 25.904,36.28 16.514,11.08 35.179,21.82 52.294,31.99 37.575,22.3 75.415,44.15 113.514,65.55 l 1.696,-14.08 c -11.217,-7.94 -24.255,-14.5 -36.08,-21.7 -38.118,-23.13 -76.867,-44.99 -115.601,-67.05 -17.691,-10.07 -18.272,-32.99 -33.736,-43.12 -12.079,-7.92 -26.457,-16.02 -38.971,-23.39 l -91.19,-53.12 c -14.567,-8.41 -37.935,-21 -51.237,-30.14 -1.097,-36.23 -0.698,-80.34 -0.026,-116.71 z m 35.83,92.99 c 27.752,13.38 69.873,39.72 97.606,55.68 l 41.86,23.93 c 10.107,5.78 21.263,11.32 30.167,18.88 14.484,12.3 17.102,35.73 30.153,49.25 5.042,5.23 118.14,71.27 131.03,76.8 -1.586,-19.76 -0.515,-42.05 -1.122,-62.12 -9.08,-6.92 -26.449,-16.63 -36.724,-22.75 -22.456,-13.55 -45.061,-26.86 -67.811,-39.92 L 648.05,1270.5 c -0.148,9.96 -0.143,19.92 0.016,29.88 z"
         id="path4"
         style="fill:#e8453a;fill-opacity:1" /><path
         fill="#ebeced"
         d="m 1382.8,1170.87 c 12.98,5.77 29.88,16.37 41.78,24.27 -18.22,11.62 -43.26,25.26 -62.48,36.49 l -158.77,91.29 -118.9,68.55 c -19.2,11.07 -40.34,24.22 -59.85,34.25 -11.39,-4.12 -30.424,-16.06 -41.531,-22.59 -15.993,-9.41 -32.108,-18.61 -48.342,-27.59 -52.445,-29.38 -103.842,-59.99 -155.864,-90.13 -48.341,-28.01 -97.919,-55.61 -145.601,-84.55 -2.852,-1.76 -6.178,-3.57 -7.317,-6.57 3.323,-4.39 31.422,-19.99 37.466,-22.24 13.352,6.16 29.747,16.22 42.774,23.78 21.426,12.35 42.771,24.85 64.033,37.48 11.491,6.87 27.043,16.88 38.903,22.4 14.082,-9.33 29.416,-17.75 43.867,-27.13 l 0.187,51.75 c 14.954,11.02 57.421,34.42 74.823,44.2 31.148,17.52 64.193,38.8 95.022,55.45 14.92,-7.13 32,-17.66 46.44,-26.1 l 60,-34.7 86.79,-50.36 c 18.32,-10.64 38.22,-21.74 55.9,-33.12 0.41,-15.91 -0.08,-33.84 0.01,-50.01 14.41,8.54 27.85,18.64 42.35,27.12 6.74,-3.36 17.1,-10.21 23.77,-14.34 z"
         id="path9"
         style="fill:#e8453a;fill-opacity:1" /></g><g
       id="g4"
       style="display:inline;fill:#e8453a;fill-opacity:1"
       inkscape:label="top layer"
       transform="translate(3.2002362,523.61411)"><path
         fill="#ebeced"
         d="m 1022.98,135.817 c 5.8,0.207 57.09,31.518 65.8,36.584 l 135.05,78.366 c 45.24,25.619 90.24,51.654 134.99,78.104 19.37,11.236 49.73,27.406 67.67,39.523 -11.67,9.531 -44.38,27.001 -59.47,35.547 -35.07,19.652 -69.96,39.627 -104.66,59.922 -66.27,38.564 -131.85,78.502 -198.53,116.403 -12.78,7.265 -25,15.742 -38.28,22.17 -9.81,-2.895 -41.721,-22.339 -52.266,-28.474 L 860.388,507.701 710.679,421.412 c -26.665,-15.258 -63.763,-34.888 -88.901,-52.195 7.375,-6.271 24.612,-15.618 33.577,-21.136 29.531,-18.175 60.372,-34.145 90.294,-51.557 65.598,-38.737 131.393,-77.14 197.381,-115.208 26.366,-15.147 53.243,-31.202 79.95,-45.499 z"
         id="path1"
         style="fill:#e8453a;fill-opacity:1" /><path
         fill="#ebeced"
         d="m 612.827,382.631 c 24.111,11.657 47.795,27.618 71.529,40.67 89.65,49.301 176.76,103.553 265.756,154.07 21.666,12.298 42.867,25.497 64.768,37.405 2.02,18.424 1.04,58.116 1.05,77.693 -0.15,48.292 0.08,96.584 0.71,144.872 -3.63,-0.552 -40.845,-24.466 -47.374,-28.258 -85.877,-49.145 -171.314,-99.057 -256.298,-149.73 -32.47,-19.113 -69.202,-39.395 -100.813,-58.866 -1.388,-44.977 0.581,-93.117 -0.307,-138.442 -0.25,-12.733 -0.727,-70.187 0.979,-79.414 z m 34.677,91.22 c 31.932,16.792 66.403,37.577 97.929,55.719 18.287,10.525 52.715,29.458 69.36,41.007 8.125,15.304 12.614,28.43 19.513,43.586 -19.222,-11.951 -39.534,-22.626 -59.032,-34.307 -41.835,-25.062 -84.178,-50.433 -127.196,-73.476 l -0.219,15.959 c 11.82,5.462 27.044,14.416 38.62,21.088 22.424,12.95 44.719,26.122 66.881,39.514 12.831,7.731 27.207,16.948 40.17,23.877 l 106.029,61.849 c 26.022,15.254 52.521,31.381 79.216,45.405 -0.28,-4.852 -0.399,-8.844 -0.358,-13.703 -27.146,-19.38 -62.192,-37.271 -90.828,-54.812 -9.359,-5.733 -25.931,-13.857 -34.27,-19.809 -8.314,-17.568 -31.455,-77.295 -40.463,-88.613 -8.597,-10.8 -140.659,-83.862 -164.888,-99.077 -0.063,9.294 -1.073,27.473 -0.464,35.793 z m 328.944,300.777 c 1.718,-3.756 2.776,-8.239 1.366,-12.298 -2.586,-7.441 -87.723,-54.222 -102.119,-60.696 -0.783,-0.353 -1.571,-0.697 -2.363,-1.032 -1.151,2.819 -3.885,8.048 -2.162,11.086 1.856,3.272 96.526,60.056 105.278,62.94 z M 647.741,551.389 c 0.277,10.862 0.342,21.729 0.195,32.594 9.38,5.693 95.891,57.867 99.221,58.295 -1.156,-10.193 -0.733,-23.316 -1.075,-33.885 -29.986,-17.177 -68.529,-41.799 -98.341,-57.004 z"
         id="path2"
         style="fill:#e8453a;fill-opacity:1" /><path
         fill="#ebeced"
         d="m 1434.64,382.814 c 1.43,6.806 0.67,51.987 0.6,61.541 -8.11,6.387 -46.91,27.43 -57.73,33.737 l -77.94,45.28 c -8.57,5.055 -35.54,21.992 -43.46,24.767 -7.7,-3.572 -17.86,-9.482 -25.9,-13.571 -14.85,8.979 -33.16,18.259 -46.86,27.958 -7.69,5.439 -17.58,35.684 -22.43,45.814 -7.56,5.243 -23.93,13.998 -32.49,18.783 l -59.4,33.088 -0.02,38.01 c 7.67,-3.641 21.05,-11.854 28.93,-16.433 20.52,-12.198 41.14,-24.237 61.85,-36.115 4.79,-9.472 8.73,-20.805 13.23,-30.622 5.79,-12.651 12.06,-25.043 17.21,-37.942 7.68,-5.41 32.75,-20.871 41.18,-23.959 8.6,3.363 17.49,7.89 26.43,11.516 58.52,-30.862 119.24,-72.244 177.19,-101.16 l 0.6,138.05 -8.04,4.079 c -87.91,49.942 -175.25,100.879 -262,152.803 -29.1,16.768 -58.08,33.728 -86.96,50.877 -14.58,8.647 -33.76,19.37 -46.98,29.346 -1.47,-73.096 -0.62,-150.308 -0.59,-223.531 10.8,-4.395 33.48,-18.278 44.3,-24.649 l 79.85,-47.066 z m -204.49,226.864 c -5.03,13.894 -16.7,41.267 -24.11,54.135 -17.87,11.5 -38.01,21.98 -56.64,32.512 l -80.61,46.501 c -0.28,6.222 -1.09,31.394 0.03,36.764 l 0.46,0.432 c 47.38,-26.424 94.32,-53.625 140.8,-81.593 24.32,-14.421 51.63,-29.563 75.28,-44.343 l 0.83,-1.518 c 7.98,-14.788 12.04,-32.815 21.39,-46.595 7.42,-10.949 74.88,-45.364 90.83,-55.329 -0.01,-4.3 0.65,-35.109 -0.62,-36.488 -55.77,29.079 -112.53,67.01 -167.64,95.522 z"
         id="path5"
         style="display:block;fill:#e8453a;fill-opacity:1"
         transform="translate(5.3258904e-6)" /></g></g></svg>
